/* XPM */
static char * fcProjLight_xpm[] = {
"32 32 19 1",
" 	s bg  c None",
".	s c1  c #8B8B8B",
"+	s c2  c #555555",
"@	s c3  c #7E7E7E",
"#	s c4  c #020202",
"$	s c5  c #025AB4",
"%	s c6  c #024E89",
"&	s c7  c #0274D5",
"*	s c8  c #0290FD",
"=	s c9  c #0270CD",
"-	s c10  c #021930",
";	s c11  c #0266B3",
">	s c12  c #0281ED",
",	s c13  c #02457D",
"'	s c14  c #023B69",
")	s c15  c #024075",
"!	s c16  c #02060A",
"~	s c17  c #6E6E6E",
"{	s c18  c #000000",
"                                ",
"     .+                         ",
"     @###+++.                   ",
"      ##$######++.              ",
"      .##%&***=######++.        ",
"       #*-;;>*******=####       ",
"       +#*-;;&*****=,#-,#       ",
"       .#**-=&;&*,--,***#       ",
"        #=**-*='#)=*****#       ",
"        +#***!-,>;&*****#       ",
"         #***#****&;&***#       ",
"         +#**#******&;>*#       ",
"         .#**#*******>;&#       ",
"          #=*#*********%#       ",
"          +#*#********,#.       ",
"           #*#******,##         ",
"           #,#****=##           ",
"           .#-=**,#.            ",
"            #-=,##              ",
"            +###                ",
"             #~                 ",
"                                ",
"     {{{{{                      ",
"     {    {                     ",
"     {    { { {{  {{{{    {     ",
"     {{{{{  {{   {    {   {     ",
"     {      {    {    {   {     ",
"     {      {     {{{{    {     ",
"                          {     ",
"                       {{{      ",
"                                ",
"                                "};
