/* XPM */
static char * out_dnPtcViewerNode_xpm[] = {
"20 20 33 1",
" 	c None",
".	c #000100",
"+	c #0B0402",
"@	c #070905",
"#	c #0C0F0B",
"$	c #171715",
"%	c #1C1D1B",
"&	c #262825",
"*	c #30302E",
"=	c #353634",
"-	c #3C3D3B",
";	c #4A4846",
">	c #514F4D",
",	c #565755",
"'	c #5F615E",
")	c #73716F",
"!	c #797B78",
"~	c #80827F",
"{	c #898B88",
"]	c #999694",
"^	c #A0A29F",
"/	c #A5A7A4",
"(	c #B0B2AE",
"_	c #B6B5B3",
":	c #C3C0BE",
"<	c #CBC9C7",
"[	c #D6D6D3",
"}	c #DCDEDB",
"|	c #E8EAE6",
"1	c #F1EBEA",
"2	c #F1F3F0",
"3	c #FAFCF9",
"4	c #FEFFFC",
"44444444444444444444",
"3|444444444444444444",
"4_44441]]}4444444444",
"4:<44}%..+{344444444",
"42)44>....#](2444444",
"44>1[@-}:-;@.*244444",
"44~^{.[442$.../44444",
"44_,;=4443*..+:44444",
"44}$$!4444<*%{444444",
"443@./44444434444444",
"444&.[44444444444444",
"444;@|44444444444444",
"444'$244444444444444",
"444)&344444444444444",
"444~*44..~4...4~..44",
"444{*44.4.44.44.4444",
"444{*44..~44.44.4444",
"444{=44.4444.44~..44",
"444_~444444444444444",
"44444444444444444444"};
